/* XPM */
static char *_0a2562ccc7a4e7efd309cbad7fc1f79TpVdcC1my8ijuriw[] = {
/* columns rows colors chars-per-pixel */
"64 64 183 2 ",
"   c #3C3C3C",
".  c gray20",
"X  c #423F38",
"o  c #554D3D",
"O  c #664A2F",
"+  c #674B30",
"@  c #6C4E32",
"#  c #6F5033",
"$  c #6C5A36",
"%  c #745436",
"&  c #775638",
"*  c #795738",
"=  c #7C5A3A",
"-  c #7C5D37",
";  c #7A6338",
":  c #444444",
">  c #4C4C4C",
",  c #5D5442",
"<  c #56524B",
"1  c #545454",
"2  c #5C5C5C",
"3  c #5E5C56",
"4  c #645A47",
"5  c #665D4E",
"6  c #685E4F",
"7  c #6D5F42",
"8  c #645E57",
"9  c #685E50",
"0  c #625F5B",
"q  c #6C614D",
"w  c #746445",
"e  c #7D6A41",
"r  c #70624E",
"t  c #7D6C49",
"y  c #786645",
"u  c #676156",
"i  c #6B6254",
"p  c #66625C",
"a  c #6B675C",
"s  c #6E685F",
"d  c #726654",
"f  c #7C6E52",
"g  c #736A5C",
"h  c #7A6D5A",
"j  c #646463",
"k  c #696761",
"l  c #6B6965",
"z  c #6C6C6C",
"x  c #726D63",
"c  c #706F6E",
"v  c #777065",
"b  c #7C7365",
"n  c #72706C",
"m  c #7C766B",
"M  c #7F7869",
"N  c #747474",
"B  c #787776",
"V  c #7B7B7B",
"C  c #825E3D",
"Z  c #85613D",
"A  c #88623F",
"S  c #8B6A3C",
"D  c #88703E",
"F  c #93723F",
"G  c #9B7C3F",
"H  c #876341",
"J  c #8C6641",
"K  c #846E42",
"L  c #8F6942",
"P  c #8E6B48",
"I  c #946B45",
"U  c #996F46",
"Y  c #8A7449",
"T  c #9B7345",
"R  c #9C7B45",
"E  c #977349",
"W  c #997E49",
"Q  c #977946",
"!  c #85765F",
"~  c #A77F47",
"^  c #A47A49",
"/  c #AA7E4C",
"(  c #A47F56",
")  c #887F6C",
"_  c #917E63",
"`  c #9F8144",
"'  c #A28243",
"]  c #A98744",
"[  c #AB8B49",
"{  c #A9854B",
"}  c #B28D46",
"|  c #B48C4B",
" . c #B59047",
".. c #B49049",
"X. c #BC954B",
"o. c #BE984C",
"O. c #A9875D",
"+. c #88806F",
"@. c #988365",
"#. c #81807E",
"$. c #8D8370",
"%. c #AE8B60",
"&. c #A18A69",
"*. c #A18966",
"=. c #A9916D",
"-. c #B69666",
";. c #AE9570",
":. c #B99D74",
">. c #B59A72",
",. c #BEA176",
"<. c #C0974E",
"1. c #C29A4D",
"2. c #C49D50",
"3. c #C99E52",
"4. c #C39553",
"5. c #C7A04F",
"6. c #CCA252",
"7. c #D1A753",
"8. c #D5A955",
"9. c #DBAE56",
"0. c #D6A659",
"q. c #DCAE59",
"w. c #D4AB5A",
"e. c #DEB158",
"r. c #E3B55A",
"t. c #E6B85B",
"y. c #EBBC5D",
"u. c #C39C68",
"i. c #DEB566",
"p. c #DAB369",
"a. c #CDA673",
"s. c #C5A77A",
"d. c #C7A87C",
"f. c #C7A272",
"g. c #D3AC7A",
"h. c #EEBE61",
"j. c #F0BE61",
"k. c #E3BB71",
"l. c #EFC063",
"z. c #F1C261",
"x. c #FBC765",
"c. c #FECB66",
"v. c #F2C46B",
"b. c #FFCC6C",
"n. c #EFC57C",
"m. c #F3C673",
"M. c #F6C871",
"N. c #FFCD72",
"B. c #F7CB7C",
"V. c #F8CC7D",
"C. c #FFD07E",
"Z. c #838383",
"A. c #8C8C8C",
"S. c #949494",
"D. c #9B9B9B",
"F. c #A3A3A3",
"G. c #ABABAB",
"H. c #B2B2B2",
"J. c #B9B9B9",
"K. c #D5B482",
"L. c #DAB683",
"P. c #DFBC88",
"I. c #DDBA87",
"U. c #E4BD86",
"Y. c #E4BF89",
"T. c #EEC682",
"R. c #E6C18B",
"E. c #EBC68E",
"W. c #F4CA82",
"Q. c #F9CE85",
"!. c #F7CF8F",
"~. c #FED284",
"^. c #FCD28D",
"/. c #EDC790",
"(. c #EEC991",
"). c #F6CF95",
"_. c #F3CC93",
"`. c #F6D096",
"'. c #FCD394",
"]. c #FDD599",
"[. c #FED69A",
"{. c #FED699",
"}. c #FED69A",
/* pixels */
"Z.D.Z.F.F.F.S.A.l   A.G.F.A.V S.j S.F.D.A.l > 2 Z.> 1 j z Z.A.2 V J.c A.A.N Z.B S.D.A.B N l Z.D.H.G.G.D.j j Z.S.V j : 2 S.S.D.A.",
"D.Z.Z.Z.D.D.A.V j   N Z.S.F.S.V j j A.A.V l 2 D.D.D.F.A.Z.j V A.A.S.A.F.F.D.A.A.2 2 j j j Z.A.G.H.F.F.D.N 1 j z 2 > 1 Z.F.G.G.F.",
"F.S.B z A.A.V N 2 z Z.A.V A.S.N . N Z.N z j z S.F.F.S.A.B B A.F.D.B A.S.S.A.A.N l N l j Z.S.G.G.F.F.S.Z.l 1 A.D.A.N N S.G.H.G.G.",
"D.S.N 1 j z l 2 1 A.F.D.V B N l 1 z F.A.l 2 Z.S.F.S.A.V Z.S.D.F.D.Z.B S.S.A.Z.z j A.D.D.A.S.D.F.D.S.V z 2 z A.G.H.F.V S.D.F.F.F.",
"S.Z.j > B D.l z j S.D.F.A.B l > j F.H.F.A.N S.Z.A.S.Z.N Z.D.F.D.Z.z z S.D.A.B z Z.G.G.F.Z.B S.S.Z.N l l V S.F.H.G.G.S.Z.N Z.S.D.",
"Z.z 1 S.F.S.S.S.V > V A.Z.B l 2 A.D.J.G.D.S.Z.Z.S.D.S.B N A.S.Z.j 2 V D.D.Z.B V S.G.F.F.A.N Z.Z.N j j B S.F.G.G.G.F.D.A.j j z Z.",
"N 2 A.F.G.G.D.S.Z.> 2 S.Z.Z.z z S.F.J.F.D.S.A.Z.A.Z.A.Z.z N N j >   N D.A.V N Z.D.F.F.F.S.V l j 2 1 j S.F.G.F.F.F.F.S.A.z 2 B z ",
"j V D.G.G.D.D.A.c 2 Z.F.G.D.S.V A.D.F.D.S.S.A.Z.Z.V V N j j l l >   Z.F.S.Z.N Z.S.S.D.S.A.B j 2 2 1 Z.A.G.G.F.F.D.S.A.B j V Z.S.",
"j S.F.G.D.S.A.N j B F.F.D.S.A.Z.B A.D.A.Z.Z.Z.N N Z.V N 1 l F.A.2 1 A.F.D.A.z z Z.A.A.A.V l j 2 V A.Z.D.F.F.D.S.S.A.V j N D.F.D.",
"B A.Z.S.D.A.N j j Z.D.D.S.A.A.Z.Z.A.A.N 2 N N z Z.Z.N N N S.S.A.A.j Z.D.A.V z j z V A.A.A.N B S.S.D.D.D.A.A.A.A.Z.N l Z.D.F.D.D.",
"N 1 N S.A.N 2 j Z.S.S.S.A.Z.Z.Z.Z.B N 2 : 2 B N Z.N l Z.S.F.S.D.A.1 l Z.j j N B V Z.Z.Z.Z.A.A.S.F.F.F.Z.N l N N N j Z.S.D.D.D.S.",
"j   l Z.N 2 1 j Z.S.S.A.Z.B V Z.N B N j : j S.D.F.V V A.D.F.D.S.N   2 D.Z.Z.A.A.S.S.A.A.A.S.S.A.Z.S.S.V j A.l j j j S.F.F.S.S.Z.",
"1 > Z.S.A.j N Z.B Z.Z.V N N N N B Z.B Z.j N S.F.G.D.V z B Z.Z.B 1 > Z.G.G.F.F.D.D.A.S.F.Z.A.V j l S.S.B A.S.A.Z.B B Z.Z.A.A.Z.z ",
"> l A.G.G.F.A.z N V B N z 2 j N Z.Z.Z.Z.V A.S.D.D.S.Z.j j j j j > N D.H.G.F.F.F.F.A.S.D.A.N 2 > N G.S.Z.G.G.S.A.V N l j 2 z l j ",
"1 Z.F.G.G.D.S.A.B A.N V j 1 1 Z.S.A.A.A.S.F.F.S.S.S.A.z j S.D.H.j S.G.G.F.D.D.D.D.A.Z.S.A.N j z S.G.F.G.H.G.S.N 2 B 2 N Z.>   1 ",
"Z.F.D.D.D.S.A.V B Z.A.A.Z.N Z.Z.D.S.D.D.Z.S.D.S.S.S.Z.z 2 B v b l N S.D.D.D.D.D.A.B z V N j z B S.H.H.F.D.D.B : A.S.A.S.B > 1 c ",
"G.D.Z.z A.Z.N j l Z.D.D.S.A.A.S.G.F.F.D.N V A.S.A.A.V 1 i ;.R./.L.:._ h l z V A.B l l A.Z.z Z.S.S.F.G.Z.V B > V S.D.S.A.N 2 Z.F.",
"H.D.l z B N j 1 2 A.D.S.A.S.F.F.F.F.F.S.B 2 l B B k d :.(.[.[.[.[.[.[.).P.,._ 6 < j S.D.D.S.D.D.Z.A.S.V 1 1 V Z.A.A.Z.N j A.F.J.",
"F.D.B Z.A.D.Z.j A.S.D.S.A.S.F.D.D.D.S.A.N 1 l 2 6 >.E.[.[.[.[.[.[.[.[.[.[.[.'.E.d.@.b V D.G.D.A.z B V 2 > j Z.Z.A.V z 2 B F.H.H.",
"S.V z V D.G.D.S.S.D.D.A.Z.Z.S.A.Z.A.A.B j > g :.(.[.!.T.W.~.~.~.^.'.[.[.[.[.[.[.[.[.E.s._ x N N N Z.S.N 1 2 Z.N N j 2 2 S.F.G.F.",
"z j Z.D.G.G.D.D.D.A.A.Z.B N B Z.B Z.Z.j 9 =.R.[.T.i.w.r.x.c.c.c.c.b.C.'.[.[.[.[.[.[.[.[.).L.@.5 k Z.D.Z.l > l V B N j l A.D.D.A.",
"> N S.F.G.D.D.F.D.B j Z.A.N l j j N x @.Y.[.[.k.7.7.7.z.x.c.c.c.c.c.c.N.^.[.[.[.[.[.[.[.[.[.[.Y.&.g B A.N B V A.S.S.A.z N A.A.z ",
"> A.F.F.D.S.D.D.A.j z A.D.Z.c N 2 d I.[.[.[.T.2.| ^ U I I I ^ 4.r.x.c.c.v.[.[.[.[.[.[.[.[.[.[.[.[.R.&.x B A.A.A.S.S.A.V A.V l > ",
"A.S.D.D.A.A.A.Z.j 2 D.F.D.B z S.n :.[.[.[.[.a.I I I I I I I I I I / h.c.t.[.[.[.[.[.[.[.[.[.[.[.[.[.[.K.h c Z.Z.D.S.S.S.V l z j ",
"G.F.S.A.Z.N l j 1 B D.F.Z.j A.A.! ).[.[.[.[.U.L L L I I I I I I I I T 9.i.[.[.[.[.[.[.[.'.[.[.[.[.[.[.[.`.*.0 V A.D.S.S.B z D.G.",
"G.A.S.A.Z.V N 2 2 S.D.A.N l Z.b R.[.[.[.[.[.[.g.H C A A A H J L L L I u.`.[.[.[.[.n.N.b.b.b.N.~.[.[.[.[.[.].,.8 Z.S.S.Z.N S.G.J.",
"D.Z.N S.G.D.Z.z A.D.V l l x _ R.[.[.[.[.[.[.[.[._.-.P C = = = C L ( L.[.[.[.[.[.p.3.3.4.0.j.c.c.V.[.[.[.[.[.[.s.g A.A.V B A.D.D.",
"V l B D.G.F.A.Z.z g i r &.K.`.[.[.[.[.[.[.[.[.[.[.[.'.E.R.U.U.E._.[.[.[.[.[.[.'.E C C A A L T q.i.'.[.[.[.[.[.[.s.s A.A.A.D.S.V ",
"S.Z.D.F.F.S.V 8 &.E._.[.[.[.[.[.[.[.[.[.[.[.[.[.[.[.[.[.[.[.[.[.[.[.[.[.[.[.[.[.a.= % & * = = E W.[.[.[.[.[.[.[.'.-.N A.A.D.F.D.",
"B Z.D.F.S.N i :.`.[.[.[.[.[.[.[.[.[.[.[.[.[.[.[.[.[.[.[.[.[.[.[.[.[.[.[.[.[.[.[.[.Y.u.O.O.%.f.E.[.[.[.[.[.[.^.V.v.2.N V l V A.A.",
"2 A.S.A.l q K.[.[.[.[.[.[.[.[.[.[.[.[.[.[.[.[.[.[.[.[.[.[.[.[.[.[.[.[.[.[.[.[.[.[.[.[.[.[.[.[.[.[.[.[.'.Q.M.z.z.z.1.z j 2 z B z ",
"2 V B z o p.Q.^.'.'.[.[.[.[.[.[.[.[.[.[.[.[.[.[.[.[.[.[.[.[.[.[.[.[.[.[.[.[.[.[.[.[.[.[.[.[.[.'.^.V.v.z.z.z.z.z.z.o.> > j A.Z.> ",
"V H.N A.l 2.z.z.z.z.v.m.V.Q.^.'.[.[.[.[.[.[.[.[.[.[.[.[.[.[.[.[.[.[.[.[.[.[.[.[.[.[.[.'.Q.B.v.z.z.z.z.z.z.z.z.z.z. .> l z Z.A.2 ",
"A.S.A.F.S.W y.y.y.y.y.y.j.j.j.y.l.z.v.m.V.Q.^.'.'.'.[.[.[.[.[.[.[.[.[.[.'.'.^.W.m.v.l.y.y.y.j.y.8.6.r.y.y.y.y.y.j.[ Z.A.Z.l V A.",
"D.B A.S.S.w y.y.y.y.y.y.y.y.y.y.y.y.y.y.y.y.y.y.h.l.l.v.v.v.m.m.m.m.v.v.l.h.y.y.y.y.y.y.y.y.r.S % % A 7.y.y.y.y.y.{ ) A.B B A.F.",
"D.Z.B D.S.u 6.y.y.y.y.y.y.y.y.y.y.y.y.y.y.y.y.y.y.y.y.y.y.y.y.y.y.y.y.y.y.y.y.y.y.y.y.y.y.y.F @ % = C R q.y.y.y.y.W B V Z.S.D.F.",
"Z.z z S.D.z [ y.y.y.y.y.y.y.y.y.y.y.y.y.y.y.y.t.6.r.y.y.y.y.y.y.y.y.y.y.y.y.y.y.y.y.y.y.y.y.@ % % = C T 2.y.y.y.t.Y V N Z.D.F.D.",
"j 2 V D.D.V e r.y.y.y.y.y.y.6.F C L | r.y.y.9.- @ - 8.y.y.y.y.y.y.y.y.y.y.y.t.t.y.y.y.y.y.r.@ % = C A { 8.y.y.y.e.t A.B N A.A.Z.",
">   N D.A.V 4 6.t.t.t.t.t.6.% @ % = L o.r.t.| @ % - 1.t.t.t.t.t.t.t.t.t.t.t.t.t.t.t.t.t.t.t.Z % = A L 3.e.t.t.t.8.q A.Z.z N N j ",
">   Z.F.S.Z.3 [ r.r.r.r.r.S O @ % C J | 7.r.| % = T 8.r.r.r.r.r.r.r.r.r.r.r.r.r.r.r.r.r.r.r.1.C C I o.9.r.r.r.r.5.5 V N j j l l ",
"j 1 A.F.D.A.j e r.r.r.r.r.@ O # * C L <.6.r.8.T ~ 8.e.r.r.r.r.r.r.r.r.r.r.r.r.r.r.r.r.r.r.r.r.9.3.8.9.r.r.r.r.r...p V N 1 l F.A.",
"A.j Z.D.A.V l , 6.r.r.r.r.@ + % = A T 8.8.r.r.e.q.e.r.r.r.r.r.r.r.r.r.r.r.r.r.r.r.r.r.r.r.r.r.r.r.r.r.r.r.r.r.r.` l N N N S.S.Z.",
"A.1 l Z.j j N p ` e.e.e.e.Z @ % = L 3.9.9.e.e.e.e.e.e.e.e.e.e.e.e.e.e.e.e.e.e.e.e.e.e.e.e.e.e.e.e.e.e.e.e.e.e.e.K j l Z.S.F.S.D.",
"N   2 D.Z.Z.A.V w q.e.e.e.o.Z Z T 3.9.9.e.e.e.e.e.e.e.e.e.e.e.e.e.e.e.e.e.e.e.e.e.e.e.e.e.e.e.e.e.e.e.e.e.e.e.7.f B V A.D.F.D.S.",
"1 > Z.G.G.F.F.D.x X.9.9.9.9.7.6.9.9.9.9.9.9.9.9.9.9.9.9.9.9.9.9.9.9.9.9.9.9.9.9.9.9.9.9.9.9.9.9.9.9.e.9.9.9.9. .m D.V z B Z.Z.B ",
"> N D.H.G.F.F.F.A.4 w K F '  .1.8.9.9.9.9.9.9.9.9.9.9.9.9.9.9.9.9.9.9.9.9.9.9.9.9.9.9.9.9.9.9.9.8.6.X.] G K w q #.S.Z.j j j j j ",
"j S.G.G.F.D.D.D.D.A.V Z.N 0 < , q f t Y Q W ' ] } } X.o.o.1.1.1.1.1.1.1.o.o.X. .} ] ` Q D ; $ 7 q i a l B A.S.S.S.S.A.z j S.D.H.",
"S.S.F.F.D.D.D.D.A.B z V N j z B S.F.F.A.Z.V p X x m b b g o , d b $.) ) +.M x a p k n N n j B B S.S.D.D.Z.S.D.S.S.S.Z.z j S.G.G.",
"D.j A.S.S.A.A.A.B l l A.Z.z Z.S.S.F.F.Z.V B > B S.D.S.A.N 2 Z.F.G.D.Z.z A.Z.N j l Z.D.D.S.A.A.S.G.F.F.D.N #.A.S.A.A.Z.z N D.G.G.",
"D.N l B V z z l j N D.D.D.S.D.D.Z.A.S.V 1 1 V Z.A.A.Z.N j A.F.J.H.D.l z B N j 1 2 A.D.S.A.S.F.F.F.F.F.S.B 2 l B Z.Z.N j N F.H.G.",
"S.z 2 B N 2 2 2 N D.G.F.F.G.D.A.c B V 2 > j Z.Z.A.V z 2 B F.H.H.F.D.B Z.A.D.Z.j A.S.D.S.A.S.F.D.D.D.S.A.N 1 l N z N j l S.G.G.F.",
"Z.j z A.F.S.Z.Z.V A.G.D.D.S.Z.N N Z.S.B 1 2 Z.B N j 2 2 S.F.G.F.S.V z V D.G.D.S.S.D.D.A.Z.Z.S.A.Z.A.A.B j 2 Z.S.S.N j Z.F.H.F.D.",
"l 1 A.F.G.F.D.A.1 V F.S.Z.z j j B A.D.Z.l > l V B N j l A.D.D.A.z j Z.D.G.G.D.D.D.A.A.Z.B N B Z.N Z.Z.N j N S.F.F.S.V Z.A.A.D.A.",
"2 1 S.G.H.G.F.A.l A.D.S.N 2 1 z B A.S.A.N B V A.S.S.A.z N A.A.l > N S.F.G.D.D.F.D.B j Z.A.N l j j Z.S.N z S.D.G.F.D.A.l l N A.V ",
": A.D.H.H.F.D.S.V B V Z.l j N S.D.F.D.D.Z.A.A.A.S.S.A.V A.V l > > A.F.F.D.S.D.D.A.j z A.D.Z.z N j B Z.N N S.F.F.F.D.S.V j j l j ",
"j Z.G.H.G.F.D.A.B 1 2 l N V V S.D.G.F.S.A.A.A.Z.D.S.S.S.V l z j A.S.D.D.A.A.A.Z.j 2 D.F.D.B z S.A.A.Z.j c D.G.D.S.A.Z.B j > > > ",
"S.D.G.G.G.F.S.Z.z 1 V A.S.F.F.Z.S.F.F.Z.B Z.Z.Z.A.D.S.S.B l D.G.F.F.S.A.Z.N l j 1 B D.F.Z.j A.F.D.D.Z.z j S.D.S.Z.N j 2 > > N B ",
"S.z D.G.F.D.A.B j 2 A.F.G.G.F.Z.Z.D.D.A.N N N Z.S.S.S.Z.N S.G.J.G.A.S.A.Z.V N 2 2 S.D.A.N l D.F.D.F.D.A.z A.S.Z.z 2 > j 0 N A.G.",
"A.2 Z.D.D.S.Z.N 2 z S.H.H.G.F.Z.z Z.Z.B 2 2 l Z.A.S.A.V B A.D.D.D.Z.N S.G.D.Z.z A.D.V z B D.D.F.S.S.S.Z.j V V N 1 : 2 S.A.D.S.D.",
"Z.> N Z.Z.N l j 2 N D.J.H.F.S.N 1 j z 2 > l S.D.F.S.A.A.A.D.S.V V l B D.H.F.A.Z.A.D.Z.2 Z.D.F.D.S.A.V N 2 1 l z 2   B D.A.D.D.S.",
"l > A.F.S.A.A.A.2 B F.G.G.D.Z.z 1 S.S.A.z A.F.G.G.F.S.A.A.D.F.D.S.Z.D.F.F.S.Z.N A.F.A.N z Z.A.S.Z.N z 2 1 N D.A.j 1 B A.A.S.S.Z.",
"2 2 S.G.H.G.F.F.A.2 N S.D.S.B j N S.G.H.D.D.S.D.G.F.D.V l V A.A.V Z.D.F.S.Z.N B S.G.D.z 1 1 l N z 2 1 1 z V S.V A.A.V N N Z.Z.N ",
"1 N D.G.G.G.G.F.Z.  B V z N j 2 S.F.H.H.F.S.N Z.G.F.A.j 2 z B l 0 A.S.A.V l l A.F.G.F.A.2 2 1 j >   2 z V l N S.D.D.Z.l 1 j j j ",
"2 A.D.G.G.G.F.D.V : V D.A.l 1 j S.F.G.G.D.V 2 j S.A.N 1 j A.V > 2 B #.B l 2 N D.G.G.F.S.B l V S.z Z.A.D.Z.V A.D.S.A.z 1 z A.l 2 "
};
