/* XPM */
static char *result[] = {
/* columns rows colors chars-per-pixel */
"64 64 59 1 ",
"  c #010101",
". c #080706",
"X c #0A0907",
"o c #0D0C0B",
"O c #110E0B",
"+ c #15130E",
"@ c #131313",
"# c #191611",
"$ c #1E1A14",
"% c #1C1C1C",
"& c #221D17",
"* c #241F18",
"= c #26211A",
"- c #2B251D",
"; c #242424",
": c #2C2C2C",
"> c #352D23",
", c #373126",
"< c #393126",
"1 c #3D3529",
"2 c #3F382C",
"3 c #333333",
"4 c #40372B",
"5 c #423A2D",
"6 c #463E30",
"7 c #493F31",
"8 c #4D4234",
"9 c #514636",
"0 c #534738",
"q c #564A3A",
"w c #5A4E3C",
"e c #5D513F",
"r c #584F40",
"t c #5E5341",
"y c #625542",
"u c #665945",
"i c #695B47",
"p c #675C48",
"a c #6B5E49",
"s c #6E614B",
"d c #72634D",
"f c #6F6550",
"g c #746650",
"h c #786750",
"j c #766A53",
"k c #7C6B54",
"l c #7E6F58",
"z c #7E7059",
"x c #816F56",
"c c #817057",
"v c #84735A",
"b c #89765C",
"n c #86785E",
"m c #8B795E",
"M c #877A60",
"N c #8D7D62",
"B c #907E62",
"V c #938265",
"C c #928269",
/* pixels */
"><11<44<<><4445551<14<447651<>-->445441152551<<><><<12222,<52<28",
"<qewwwwwwqwwwqq440qtyryryt0900914qetwq90qwewqq9119wetwqwqweeeq9,",
"5eyuuiyyidauyyt54wyggaupsyyqwww24wiiuywtypipyyw41epddpiyssssseq,",
"<qtxbbxxxbbhkuy54rpMCMbvBvhhhtw55wakbxhddbmmxpq41usVVvkxzmVzbyq,",
"<9ehxxxxkvmkkuy55waMNkvvbxkkhtw17edxvvxdhbmMxaw52tpvbvxmVmmckye1",
">9euyyyypsduiee22wtasuuypypaaay67uaaaduywuupiie42qeuyytygssyuew1",
">7wwweewttyetw915wqwqqrttwrtyut54wwq9qqwqwqweyw<18wttqqqeqewqq94",
"><44444425525251222221<<15667661444>44454444554>>1565441214441<,",
"<445222,><4451557762<<<,14545454444><<41<455744<<588754<<551111<",
"wetteeq<<9wqewttuipytq9<4weqweywwwe0ww0<<9eeye97qeweeew41ew9qqww",
"wyiayye21qyusppsiasiiwq57yiyiasadaaidyq<<wyyaayytuiuaye45eyyuusd",
"vbbbcye558whVNnlhhvvcyq16yaxbmMCBbbbmuq<<wyxbbbxxkckxye<1qukbbmV",
"xxxxkyq<<8whmVVbhhxxkyq16uskbmNVmbbbbuw45yyhkbbbcxbvcie4<qyxxbbm",
"dsyisye<58wysdssuuyuaeq15ttyipgjiwwyiut76yuuiaddsuiisiy4<qeiuiia",
"yeqwee9<<8qwwqwweewwtq911wqwettt079qeyw44qqqqwtyeeeyuuq44qwwwwww",
"5444551><<55<<<<4455641><1222652<<<44654<44555555288554<>4444<44",
"<454454<144441<>>1144511<622262,><4622111<44441<185545<<<5822222",
"<wytyyyyyuwwqq9,<9wwyyeqtttrqtt2<90rrrrrqwewqqq12eeeeeq89eteqqq8",
"4wyiysssaddsdst15eiiisssasputut65wripuptueuytq912eeuyuyyusggsue8",
"4wyhkVmmmmvmnsy25ydmVVmvbxvxvpt55wukchlkxhvxkw912eszvvvzvvbmkse2",
"<eesgkkzvbmVVse15tgCNNmmbvvxcpt66yudkjMbvhxBvy9<1qukmzvvmmmmvsy5",
"1eyysususyyasye,1tsjjdpyppyeyay24wuytyyiyuahde9<2qysguyeuuiyuse5",
"<qeeeeq999eeqe8,<9ttttwettw0qrw240wqqwewewyyyw91<89eeqq8wqeeeee1",
"<<<<821,<<,25521>1<125556511<25<<455111111444<<<><><<11<<415551<",
"54<<22<,-228581211<<<5521,=+o     .O$-1<114441151<><141<>4525<55",
"qeq9qqq2<eeteutuweqqweq-@o.          X#$>8wwwwwwqqqwttq419qqeeuy",
"uiuttse2<esjsfssyuyye1O       .X..      .&yjhsiiyyuddat4<qeusadd",
"vckkstq2<qunbVbbvmvd*    X%;:33333::%@    .8NNxkdkcNmat449ynmBmV",
"Vkddsyq2<qsmmVvbcv8o   @;3333333333333:%    =xxxkhdxkyq1<9yxbcvb",
"syeeyut22wysuyyyy,   o;:3333333333333333:%.  #qsaiyyytq4<9eeyyid",
"eeeqett22eeeeeqe>   @:33333333333333333333;.  O9ee0qwew<<99qqqqq",
"1<<<8281<<,,<<,#  .%33333333333333333333333:O  .>455555<><44<<<4",
"><1<228562<<11$   :33333333333333333333333333@  X>51655411444<>-",
",998qettutw89<   ;333333333333333333333333333:o  #qtteywqqeyew84",
"5weepsjsssay7o  %333333333333333333333333333333X  &ydsdasyausyw4",
"8eusvnNmmzks#  @3333333333333333333333333333333:   0mVVmbxbbbsy4",
"5euakzvbkka>  @:33333333333333333333333333333333;. OaCVmxhxxxie4",
"<qyyyyisuy5  .:333333333333333333333333333333333:@  =suyeywiiiw4",
">69weeeeq0O  %33333333333333333333333333333333333:o  <ww0079qe04",
"--><15251*  @:333333333333333333333333333333333333;  X>244<4444>",
"<>><4444>.  ;33333333333333333333333333333333333333O  =54444444<",
"q9789qe5&  @333333333333333333333333333333333333333;. X<<9eewwq0",
"yttyyye4X .33333333333333333333333333333333333333333%  *<9wyeiiy",
"bchxxyw*  @33333333333333333333333333333333333333333:  o>9wdxxxx",
"mvbbvuw.  :333333333333333333333333333333333333333333#  =qqdxbbb",
"dsaisi4  @3333333333333333333333333333333333333333333:  Oqwiiidd",
"ewwqte&  ;33333333333333333333333333333333333333333333O .5weeeyu",
"14111<. o333333333333333333333333333333333333333333333;  $44<<45",
"<14<<*  @3333333333333333333333333333333333333333333333  X<<<><<",
"1qwq9+  ;3333333333333333333333333333333333333333333333o  1qqq8<",
"1eyiqO .33333333333333333333333333333333333333333333333@  >uauq1",
"5yykt. @33333333333333333333333333333333333333333333333;. -bbst5",
"5ypj8  %333333333333333333333333333333333333333333333333O Obxae5",
"5yuu=  :333333333333333333333333333333333333333333333333@  quye4",
"19q9+ .3333333333333333333333333333333333333333333333333%  1w091",
"><1,X o3333333333333333333333333333333333333333333333333;  #4<<>",
"141-. @3333333333333333333333333333333333333333333333333:  o<><<",
"0qy>  %3333333333333333333333333333333333333333333333333:X oq909",
"yia>  ;33333333333333333333333333333333333333333333333333o Xwyyy",
"akv=  :33333333333333333333333333333333333333333333333333O .axkk",
"kkv#  :33333333333333333333333333333333333333333333333333@  yvdd",
"uyio  333333333333333333333333333333333333333333333333333%  6aut",
"wwwX  333333333333333333333333333333333333333333333333333*  4ytw",
"<<5  .333333333333333333333333333333333333333333333333333;  -586"
};
