/* XPM */
static char *result[] = {
/* columns rows colors chars-per-pixel */
"64 64 217 2 ",
"   c #020201",
".  c #0A0705",
"X  c #090906",
"o  c #0D0C0B",
"O  c #100D0A",
"+  c #14120E",
"@  c #19150F",
"#  c #141414",
"$  c #1A1713",
"%  c #1D1914",
"&  c #1D1D1D",
"*  c #281E0E",
"=  c #231D16",
"-  c #36270F",
";  c #25211B",
":  c #2B241C",
">  c #2A241B",
",  c #382A17",
"<  c #3D301B",
"1  c #242424",
"2  c #2A2723",
"3  c #2D2D2C",
"4  c #2B2925",
"5  c #342D23",
"6  c #302E2D",
"7  c #373126",
"8  c #393126",
"9  c #35322E",
"0  c #3D3529",
"q  c #3F382C",
"w  c #392F30",
"e  c #333333",
"r  c #3B3532",
"t  c #3D3934",
"y  c #3A3A39",
"u  c #383738",
"i  c #6D0C1F",
"p  c #4D330A",
"a  c #463009",
"s  c #593C0B",
"d  c #443012",
"f  c #4B3513",
"g  c #42341C",
"h  c #4E3A16",
"j  c #553B13",
"k  c #563E19",
"l  c #432D0F",
"z  c #603F08",
"x  c #741023",
"c  c #423624",
"v  c #40372B",
"b  c #423A2D",
"n  c #4A3B24",
"m  c #453E30",
"M  c #493E31",
"N  c #4A393E",
"B  c #583B2C",
"V  c #5E4214",
"C  c #5C431B",
"Z  c #5F400D",
"A  c #68450B",
"S  c #744C0C",
"D  c #784F0A",
"F  c #7A510C",
"G  c #7A510A",
"H  c #624312",
"J  c #674919",
"K  c #724E10",
"L  c #755114",
"P  c #7C5313",
"I  c #7A571B",
"U  c #6E5019",
"Y  c #584426",
"T  c #4D4234",
"R  c #4D4539",
"E  c #524636",
"W  c #524738",
"Q  c #554A3A",
"!  c #5A4E3C",
"~  c #5B4B35",
"^  c #5D513F",
"/  c #4E402E",
"(  c #634926",
")  c #654A34",
"_  c #503F43",
"`  c #564642",
"'  c #5E5341",
"]  c #5B534A",
"[  c #555251",
"{  c #625542",
"}  c #665945",
"|  c #695B46",
" . c #665C4A",
".. c #6B5E49",
"X. c #60574B",
"o. c #7D534C",
"O. c #635D54",
"+. c #724D51",
"@. c #6E614C",
"#. c #72634D",
"$. c #77664B",
"%. c #6D6453",
"&. c #746651",
"*. c #786750",
"=. c #766953",
"-. c #7C6C54",
";. c #796D5A",
":. c #7E7058",
">. c #7B7162",
",. c #7A6F60",
"<. c #8D2536",
"1. c #BB1232",
"2. c #D91138",
"3. c #E6113C",
"4. c #82550B",
"5. c #86590C",
"6. c #8A5B0B",
"7. c #875906",
"8. c #915F0B",
"9. c #885D16",
"0. c #94620B",
"q. c #9B660A",
"w. c #9E690A",
"e. c #976206",
"r. c #8B611C",
"t. c #936413",
"y. c #996712",
"u. c #A36B06",
"i. c #A36B0A",
"p. c #A96E0A",
"a. c #AD7106",
"s. c #AD720A",
"d. c #B47606",
"f. c #B77805",
"g. c #BB7A05",
"h. c #B2760A",
"j. c #B6780A",
"k. c #BC7A09",
"l. c #B87706",
"z. c #AA7212",
"x. c #855B28",
"c. c #896325",
"v. c #926822",
"b. c #986C2A",
"n. c #9B7127",
"m. c #937036",
"M. c #A47628",
"N. c #AC7F35",
"B. c #C27E04",
"V. c #846B46",
"C. c #816F56",
"Z. c #827056",
"A. c #84735A",
"S. c #89765C",
"D. c #8B795E",
"F. c #887659",
"G. c #957C53",
"H. c #8E7247",
"J. c #A37F48",
"K. c #875B62",
"L. c #8D7D62",
"P. c #857A67",
"I. c #917E62",
"U. c #967068",
"Y. c #836169",
"T. c #A15C5E",
"R. c #B1812F",
"E. c #C78201",
"W. c #C88202",
"Q. c #9B835B",
"!. c #A9844B",
"~. c #A98B5A",
"^. c #B88D46",
"/. c #928165",
"(. c #928269",
"). c #948976",
"_. c #8C8170",
"`. c #AB8D60",
"'. c #B99864",
"]. c #AC9275",
"[. c #C09B5F",
"{. c #C8A266",
"}. c #CCA970",
"|. c #DDB577",
" X c #D0AC71",
".X c #E5BC79",
"XX c #EDC27C",
"oX c #F0C47F",
"OX c #B87A86",
"+X c #AF7881",
"@X c #9F9280",
"#X c #A99C85",
"$X c #BBA686",
"%X c #BAAA91",
"&X c #B8B6B3",
"*X c #CF8896",
"=X c #C8B49A",
"-X c #C5A18F",
";X c #DD92A2",
":X c #EA9AA9",
">X c #F39FB0",
",X c #CFBDA2",
"<X c #FCA3B5",
"1X c #F6A1B2",
"2X c #FDCE84",
"3X c #F6CA81",
"4X c #D6C4A6",
"5X c #C4C1BA",
"6X c #EAD5B7",
"7X c #F3DDBC",
"8X c #F7E2BF",
"9X c #CDCCC9",
"0X c #D5D5D5",
"qX c #FEE6C4",
"wX c #FFFFFF",
"eX c #F4F4F4",
"rX c #E9E9E8",
/* pixels */
"5 8 0 v 8 v v 0 8 5 8 b q v b q q 0 0 0 v 0 q q T b q 8 8 5 5 : 5 v v b v v 0 0 q q b q q 7 8 5 8 7 8 8 q q q q 0 0 0 q q 0 q b ",
"8 Q ! ! ! ` ! ! ! Q ! ! ! ! Q 0 0 Q Q ^ { ! ' ^ } ^ Q W Q W T 8 0 Q ^ ^ ^ Q E E Q ` ^ ^ ! W E 8 8 E ^ ^ ' Q ! Q ! ! ^ ^ ^ E W 0 ",
"b ^ { | | | | { | #...} } { ' b v ^ } @.&. .}  .@.} ^ ! ! ! ^ q b ! | | } { ~ { ' ....} } ^ ^ v 0 ^ } &.&.} | { @.@.%.@.@.^ E 0 ",
"8 Q ^ C.Z.S.C.C.C.F.F.*.*.} { q 0 !  .P.(.S.F.S.L.Z.*.*.$.^ ! q b ! ..-.S.Z.*.#.$.A.D.D.-.| ! q 0 { @././.F.-.:.:.A.D.F.F.^ ! 8 ",
"8 E ^ *.C.Z.C.C.-.F.D.-.-.} { b v ^ ..S.L.:.:.A.D.C.*.=.=.' ^ 0 b { ..C.Z.S.C.*.*.S.D.D.C...~ b q ' } D.F.A.Z.D./.L.L.Z.:.^ ^ c ",
", E ! } { } { {  .@.#.} | ' ^ q v ! { ..@.} } } } } } @...@.} b M | ........} { ! } }  ...} ' v q ! ' ' } ' ^ } &.@.| ^ } ^ ! q ",
"5 M ! ! ! ! ^ ! ' ' { ^ ' ! W 0 v ! Q ! Q W Q ^ ^ ^ ^ ' { } ' b b ! ! ! E ! Q ^ ! ! Q ! ! { ! 8 8 T ^ ' ' Q Q Q ^ ! ^ ! ~ Q W q ",
"5 8 b b v v v v q v q q b b q 0 q v q q q q 0 8 0 q b T b T b q v v 8 8 8 v 0 b 0 b 0 b b b v 5 7 8 b / b q 0 8 q q q q q 0 8 7 ",
"8 v v b 0 q 0 7 5 0 v v v q b b m T m q 8 0 0 7 8 v b v b b b 8 v v v 5 8 8 0 0 8 v b b M v 8 5 8 b M m b b v 8 8 q v 8 q 8 8 0 ",
"~ ^ ' ' ^ ' Q 0 8 E ! Q ^ ! ' ' } } } ] ^ Q E 8 v ! ^ Q ^ ^ ^ ^ ! ! ` ~ ! ! W 7 8 E ^ ^ { ^ Q E W ' ' ' { ' ! v 0 ! ^ ~ ! Q ! ^ ",
"' { ....{ } ! q 0 Q { } @.}  . .........} ! ! 0 T } ..{ | ..@.@.#.......#.{ Q 8 0 ! { { ....{ { { } | } | { ' v b ^ ^ ^ | | @.#.",
"Z.S.F.F.C.{ ^ b v T ! *././.F.:.*.-.C.F.Z.{ Q 0 b { ..-.F.D.L.(.I.D.S.S.D.} Q 0 0 ! { C.S.D.F.C.C.C.Z.-.C.{ ! 0 8 ! | -.F.S.D.I.",
"C.S.C.Z.-.{ Q 8 0 T Q *.L././.F.*.*.-.C.C.^ Q q T } @.:.A.D.L./.D.F.A.D.S.} ` b v { { *.-.S.D.F.C.C.S.S.A...' v c Q { -.C.F.F.D.",
"....{ | ..{ ^ 0 0 T ! } #.@...#.| } { | ..^ Q v q ^ ' ^  .@.@.=...! ! { | } { M b { } { } ..#.#...} ..} ..} ' v 8 Q ' } { ..| ..",
"' ' ~ ! ^ ^ E 5 8 T Q ! ! Q ! ! ^ ^ ^ ^ ^ ! T 8 8 ! ! ! ^ ' ' ' W T E ! ' ' W v v ! ! ! ! ! { { ' ' ' { } { Q v 8 ! ! ! ! ! ~ ' ",
"b b v v b b v 5 8 0 c v 0 8 8 0 0 c v b b v q 7 8 0 q q 0 / b q 8 5 8 0 v m b 5 8 0 v v v v v b b m m b M b v 5 8 0 b b 0 8 v b ",
"5 v v v v b 0 0 v v v b 0 0 8 5 8 0 v v v v v 0 0 b q q 0 t q 7 8 8 9 8 t 0 M k 0 0 0 v q 0 0 7 8 m m m q b 0 8 8 b m q q 0 b 0 ",
"v ! { { { } { { { { ~ ! ! ! W 5 8 E ! ! ' { ^ ! ^ ] ' ' ! ' ' b : j 6.i.S K g B ! ! ! ! Q ! W 0 b ' ' ' ' ' W T E ! ' ' Q Q Q m ",
"8 ^ { } } @. .@...#.#...@...' 0 b ! | | | @...@....... .^ { ' g B.B.E.E.S q.A z W ^ } { ' ! ' 0 v ! ' { { } { { } @.&.&...| { m ",
"v ` { -.:.L.D.D.D.L.A.L.P...{ b b { #.D././.D.F.S.:.Z.Z.A.@.^ t.E.E.W.B.p 5.K h.J *.A.Z.=.! E t b { | -.A.Z.S.Z.S.A.S.L.C...' b ",
"8 ^ ^ #.#.-.-.-.F.F.D.I./.@.^ v / ^ &./.L.S.` 0 0 R ..-.C...` 6.E.E.E.q.j P 8.B.t.*.=.*.:.` R 0 v ! } -.P.C.F.Z.D.S.D.F.A.#.} b ",
"0 ^ ^ { | @.@.} | { } | ..} ! 8 q ^ @.=.%.J q.u.i.7.p * 5 ` | B g.E.l.D 0.P 4.q.j.j.V j.r.Q R 0 0 ! { #.$.{ { ! } } | | | ..' b ",
"8 Q ^ ^ ' ^ ! E Q Q ! ^ ^ ! T 7 7 W ^ ^ r.E.E.E.E.E.E.E.q.s d c M v.4.B.6.q.E.E.E.E.4.E.l.P W 9 8 M E ! ' Q W T ! ~ ^ ! ^ { ! 0 ",
"8 8 8 q b q 0 7 8 8 8 v v b q 8 7 0 0 / E.E.E.E.E.E.E.E.E.E.B.B.4.C i.h.B.E.E.E.E.8.l.B.I &X*.0 5 8 5 0 0 0 0 8 0 0 0 v b v 0 8 ",
"b c 8 8 q q 0 7 , 0 q T b b q q 7 8 8 L B.B.B.a.8.q.a.B.B.B.B.B.W.W.E.B.W.E.W.E.E.a.h.B.r.rXeXO.0 8 5 8 0 0 0 5 8 0 q q q 0 b b ",
"! ! Q W E Q E q 9 ! ^ ' ^  . .{ ^ ^ W y.B.L K.U.*XOXK.B 7.B.B.B.E.W.E.E.W.W.E.E.E.E.B.B.d.9XwX0XT Q Q ' ' { ! 0 8 E ! ! ! ! { { ",
"} | } { { @.^ q 0 ^ @.=.@.@.@.@.} } ^ y.x.;X<X<X<X<X<X<XOX) a.B.E.E.E.E.E.E.E.W.E.E.E.E.B.G.wXwXO.{ } @.' } { q 0 W ] } #...$.#.",
"A.Z.-.*.@.' Q q 7 W @.F.D./.F.D.Z.D.-.J ;X<X<X<X<X<X<X<X>X:XK.i.W.E.E.E.W.E.E.E.E.E.E.E.B.s.rX9Xu =.Z.;.1 4 ' b 0 E { A.L.D.I./.",
"/.:.#.#...{ Q q 7 Q @.D.D./.A.F.:.D.R w <X<X<X<X<X<X<X<X<X<X1XV.B.E.E.E.E.E.E.B.h.g.E.E.E.E.].&X   .&.P.[ 4 Q 0 0 E { Z.S.Z.C.S.",
"@.{ ^ ^ { } ^ b 0 ! { @.| ^ ^ } ' 7   $ >X<X<X<X<X<X<X<X<X<X<X>Xi.E.E.E.E.E.E.E.B.p.8.p.E.E.s.5X. m X.O.o Q Q 0 0 W ! ^ { { | #.",
"^ ! ! ! ' ' ' q q Q ^ ^ ^ ^ Q ^ 5     o K.1X<X<X<X<X<X1XOX>X>X<Xb.E.E.E.k.k.g.B.B.E.B.h.K S H >.y >.qXqX4XO.! 0 0 T W E W Q Q ! ",
"0 0 0 8 q T T 9 0 0 7 7 8 0 7 @       & 9 *X<X<X<X<X<X<X` K.OXT.j.E.E.E.E.B.k.q.8.e.u.j.j.B.k.i.%.,X8XqXqXP.b 5 5 8 v v 0 8 8 0 ",
": 8 q 7 0 q m b b q 8 8 0 0 %       1 e e w :X<X<X<X<X<X:XK.9.d.B.W.E.E.W.E.E.W.E.E.h.0.F 4.5.6.Q %X6XqXqX] b q 8 8 v b q 7 5 , ",
"8 E W T Q ^ { ' } ' ! T E 8       & e e e e _ ;X<X<X<X<X<X<X*Xz.E.E.E.E.E.E.E.E.E.E.E.E.W.W.E.0.%XqXqXqX_.W ^ ^ ! ! ^ ' ^ ! R 7 ",
"b ^ ' ^ @.@.=.@.#.@...{ M X     & e e e e e e u OX>X<X<X<X<X:X9.W.E.E.E.E.B.j.R.[.}.!.n.8.G p @ #X=X%X;.{ @.&.@.@.{ ^ ' #.{ ^ 0 ",
"T ^ } @.A.A.L.D.D.:.-.@.$     # e e e e e e e e e ` U.:X<X<X1XB E.E.E.W.B.m.4XqXqXqX8X6XX X X X %.u X Q F././.D.F.~ a.) F.R ' q ",
"b ! } ..-.:.S.S.-.*.@.,     # 3 e e e e e e e e e e u e ` O.Y._ w.E.E.E.m.7XqXqXqXqXqX4X. .   3 =.h h , < ^ =.:.#.0.i.~ Y q.m 8 ",
"0 ! ^ { { { } @.} { m       4 e e e e e e e e e e e e e e e u e < E.E.W.$XqXqXqXqXqXqXU.i . + ).0.E.E.E.E.d.7.C I B.l.h.s.s.m q ",
"5 / Q ! ^ ^ ' ^ Q W o     & e e e e e e e e e e e e e e e e e e e V W.W.].qXqXqXqXqX6X<.2.x ;.x.E.E.E.E.E.E.E.E.B.E.E.E.B.k Q 8 ",
": : 5 8 q v q b 0 =     # 3 e e e e e e e e e e e e e e e e e e e e I W.n.7XqXqXqXqX=X1.3.<.G.k.E.E.E.E.E.E.E.E.E.E.E.B.J q q 7 ",
"7 5 5 8 q b b 0 5       1 e e e e e e e e e e e e e e e e e e e e e 0 Z F ~.qXqXqXqX].2.3.+.9.I U U S S S F P 9.p.W.k.Y b b v 8 ",
"Q E M M E Q ! b =     # e e e e e e e e e e e e e e e e e e e e e < a.f.D p P.6X6XqX-X2.T.` w 6 e u e 1 o X o 0 ( k.W.D ! ! ~ W ",
"{ { ' R 0 2 ; 1 = = o e e e e e e e e e e e e e e e e e e e e e , f.E.E.E.B.A , k ).7X=X@Xe e e e e e e & X . = 0 M n M ' { } { ",
"S.Z. .:.*.{ ! 2 @ > , < e e e e e e e e e e e e e e e e e e e 4 q.E.E.E.E.E.E.w.d 3 P.).y e e e e e e e C K , O : Q ^ ..C.C.F.C.",
"L.S.S.F.S.} Q .     3 0 f 5 e e e e e e e e e e e e e e e e 6 F E.E.E.E.E.E.E.E.B.0.d 3 e e e e e e r 6.B.u.= . = Q ! ..C.S.S.F.",
"#.....| #...b     # e e r H g e e e e e e e e e e e e e e e A E.E.E.E.E.E.E.E.W.E.E.g.4.f , 4 6 e e L E.h.8.S = + ~ ^ } } ....&.",
"! ! ! ! ^ ^ $     4 e e e e J j e e e e e e e e e e e e 9 A E.E.E.E.E.i.E.W.W.W.E.E.E.E.E.E.j.4.C Y E.E.W.W.i.s # v ! ^ ^ ^ } } ",
"0 0 v 0 0 0     o e e e e e e J J 6 e e e e e e y e 3 t P E.E.E.E.E.E.h.c.0.W.W.E.E.E.E.E.E.E.E.E.k.E.E.B.B.d.p.* = v b 8 8 v b ",
"8 0 0 8 8 =     # e e e e e e e Y 5.q e e e 2 > a G i.i.E.E.E.E.E.E.W.R.oX}., L u.g.E.E.E.E.E.E.E.E.E.E.l.L I k + o 8 8 8 8 8 5 ",
"0 Q ! ! E #     1 e e e e c L I n ( t./ 1 * A a.E.E.W.E.W.E.E.W.E.E.R.oXoX| e e 4 < p A G 7.7.4.I 9.e.D c e e o     0 Q Q W T 8 ",
"0 ^ { } ! O     3 e e 9 F E.W.W.s.3 ( a A g.E.W.E.E.E.E.E.E.W.W.E.!.oX2XQ.e 3 3 e e u u 9 e u u e e u u e e e #     5 } | } ! 0 ",
"b { { -.{     o e e t t.E.E.W.W.E.< 5 4.E.E.E.E.E.E.E.E.W.W.f.M.{.3XoX}.7 / Z Z , e e e e e e e e e e e e e e 1     : D.F.#.^ v ",
"b { @.=.T     1 q v t.E.E.E.E.E.E.- w.E.W.E.E.E.E.W.E.E.p.c.`.oX2X2X|.C h.E.E.E.a.> e e e e e e e e e e e e e 3 o   + A.C...^ b ",
"b { ' } ;     0 p.h.E.E.E.h.E.E.0.F E.E.E.E.E.W.E.E.s.v.~.oX2X2X2X2XH.j.E.E.E.E.d.> 4 3 e e e e e e e e e e e e #     ! | { ^ b ",
"0 W ! E +     c a.f.j.E.E.F E.d.A E.E.E.E.E.E.E.d.r.'.3X2X2X2X2X2X'.8.E.E.E.E.E.w.e |.$.e e e e e e e e e e e e &     8 ~ E E 0 ",
"5 8 0 5 X   o u 9 J i.E.0.w.E.i.E.E.E.E.W.E.E.0.!.XX2X2X2X2X2X2X}.U E.E.E.E.E.E.J @.2X~.^ e e e e e e e e e e e 1     $ b 8 8 5 ",
"0 0 0 :     # e e e ( Y , g.E.W.E.E.E.E.E.E.c. X2X2X2X2X2X2X2X'.K E.E.E.E.E.E.8.Z ~.2X X|.1 e e e e e e e e e e 4     o 8 5 8 8 ",
"W ! { 5     & e e e e e d E.E.E.E.E.W.E.E.y..X2X2X2X2X2X2XXXV.4.E.E.p.E.E.E.E.E.t..X2X2X'.1 e e e e e e e e e e 3 X   o Q E E W ",
"{ | ..5     1 e e e e e p E.E.E.E.E.E.E.E.c.XX2X2X2X2XXX~.Y V H C g , g.E.E.E.E.^.2X2XoXQ e e e e e e e e e e e e o   X ! { { { ",
"#.*.F.;     1 e e e e e - E.E.W.E.E.E.E.E.d.n.!.~.`.A.Q 1 e e e 3 e > d.E.E.E.M.oX2X2XQ.6 e e e e e e e e e e e e o   X | C.-.-.",
"-.-.Z.$     3 e e e e e 3 H a.g.g.g.a.u.6.L J 8 3 e e e e e e e e e ; d.E.s.^.XX2X2XQ.9 e e e e e e e e e e e e e #     { A.$.*.",
"} { | o     e e e e e e e 6 , < g < : 4 3 e e e e e e e e e e e e 9 > d.M.}.2X2XXXC.3 9 e e e e e e e e e e e e e $     M ..{ ' ",
"! Q ! X     e e e e e e e e e u e u e e e e e e e e e e e e e e e e 4 b.XX2X.X`.R e e e e e e e e e e e e e e e e &     q { ' ! ",
"8 0 b       e e e e e e e e e e e e e e e e e e e e e e e e e e e e e Q Q.:.R e e e e e e e e e e e e e e e e e e 1     ; m M m "
};
