/* XPM */
static char *result[] = {
/* columns rows colors chars-per-pixel */
"64 64 211 2 ",
"   c #060603",
".  c #0A0806",
"X  c #161510",
"o  c #271E12",
"O  c #3C2C16",
"+  c #2B2113",
"@  c #272727",
"#  c #312E27",
"$  c #3E3322",
"%  c #3F3528",
"&  c #333333",
"*  c #3E3935",
"=  c #3C3B3B",
"-  c #6D0C1F",
";  c #4D330A",
":  c #463009",
">  c #5A3C0B",
",  c #402C11",
"<  c #4B3514",
"1  c #45341B",
"2  c #543A13",
"3  c #462E0D",
"4  c #603F08",
"5  c #741023",
"6  c #4C3C23",
"7  c #423829",
"8  c #443C37",
"9  c #583B2C",
"0  c #5C431D",
"q  c #5D4114",
"w  c #69460B",
"e  c #744C0C",
"r  c #784F0A",
"t  c #79510C",
"y  c #7C5105",
"u  c #624413",
"i  c #6C4912",
"p  c #684A1D",
"a  c #61461A",
"s  c #734E10",
"d  c #7B5312",
"f  c #72511A",
"g  c #7C591C",
"h  c #7A571B",
"j  c #4F422D",
"k  c #58472B",
"l  c #4A443E",
"z  c #53493C",
"x  c #584A37",
"c  c #654B27",
"v  c #69512C",
"b  c #7B5A24",
"n  c #685637",
"m  c #755D36",
"M  c #654331",
"N  c #7B633A",
"B  c #444444",
"V  c #4A4441",
"C  c #4E4944",
"Z  c #4C4C4C",
"A  c #514C45",
"S  c #5D4041",
"D  c #5B5043",
"F  c #5D574F",
"G  c #4F4F50",
"H  c #545454",
"J  c #595654",
"K  c #5D5954",
"L  c #5C5C5C",
"P  c #5D4C50",
"I  c #645A4C",
"U  c #695D4B",
"Y  c #655745",
"T  c #7D534C",
"R  c #705F45",
"E  c #635D53",
"W  c #605F5E",
"Q  c #66565A",
"!  c #714647",
"~  c #5F605F",
"^  c #7A6647",
"/  c #6B6357",
"(  c #756958",
")  c #6C5D60",
"_  c #646464",
"`  c #6A6661",
"'  c #6C6C6C",
"]  c #6E6964",
"[  c #716D6A",
"{  c #7B756D",
"}  c #787168",
"|  c #7E6F72",
" . c #747474",
".. c #7B7B7B",
"X. c #7B7772",
"o. c #BB1232",
"O. c #8D2536",
"+. c #DC1038",
"@. c #D41239",
"#. c #E6113C",
"$. c #82550B",
"%. c #86590C",
"&. c #8B5C0B",
"*. c #875906",
"=. c #915F0B",
"-. c #855B17",
";. c #94620A",
":. c #9B660A",
">. c #9E690A",
",. c #976206",
"<. c #8A621E",
"1. c #926414",
"2. c #986815",
"3. c #A36B06",
"4. c #A36B0A",
"5. c #A96E09",
"6. c #AD7106",
"7. c #AD720A",
"8. c #B47606",
"9. c #B77805",
"0. c #BB7A05",
"q. c #B2760A",
"w. c #BB7A0A",
"e. c #B67808",
"r. c #AB7113",
"t. c #AA7212",
"y. c #815D21",
"u. c #85582D",
"i. c #896425",
"p. c #946926",
"a. c #9B7127",
"s. c #8D6C34",
"d. c #977234",
"f. c #936F34",
"g. c #A47628",
"h. c #AC7F35",
"j. c #C27E04",
"k. c #865950",
"l. c #B74E58",
"z. c #8B724B",
"x. c #977E55",
"c. c #89724F",
"v. c #A37F48",
"b. c #895D64",
"n. c #867977",
"m. c #917768",
"M. c #A56E71",
"N. c #AE812F",
"B. c #B3802F",
"V. c #C78201",
"C. c #C88202",
"Z. c #9B825A",
"A. c #A9844B",
"S. c #A98B5A",
"D. c #B88D46",
"F. c #898378",
"G. c #98886E",
"H. c #AB926A",
"J. c #B99864",
"K. c #AD9170",
"L. c #C09B5F",
"P. c #C8A266",
"I. c #D0AA6F",
"U. c #CCA970",
"Y. c #DDB577",
"T. c #D0AD73",
"R. c #E5BC79",
"E. c #EDC27C",
"W. c #F0C47F",
"Q. c #B77B87",
"!. c #838383",
"~. c #8C8C8C",
"^. c #898888",
"/. c #938E88",
"(. c #949494",
"). c #9B9B9B",
"_. c #989798",
"`. c #A49784",
"'. c #A4828A",
"]. c #BBA686",
"[. c #B9AA91",
"{. c #A3A3A3",
"}. c #ABABAB",
"|. c #B1B1B1",
" X c #B9B9B9",
".X c #BEBAB5",
"XX c #C98593",
"oX c #D58C99",
"OX c #C6B39A",
"+X c #C5A18F",
"@X c #DD92A2",
"#X c #EC9BAB",
"$X c #E596A6",
"%X c #F29EAF",
"&X c #F49FB0",
"*X c #CFBDA2",
"=X c #FCA3B5",
"-X c #F6A1B2",
";X c #FDCE84",
":X c #F6CA81",
">X c #D6C4A6",
",X c #C4C1BA",
"<X c #EAD5B7",
"1X c #F3DDBC",
"2X c #F7E2BF",
"3X c #CDCCC9",
"4X c #D5D5D5",
"5X c #FEE6C4",
"6X c #FFFFFF",
"7X c #F4F4F4",
"8X c #E9E9E8",
/* pixels */
"!._.!.).}.)._.^.' & ^.{.{.~...(._ (.{.).~.' B ~ ^.Z H _ ' ~.~.~ .. X .~.~. .!...(._.~...' ' !._.|.}.}.).~ _ ~.(...~ B L (._._.~.",
"_.!.!.!._._.~.!._ =  .!.(.{.(..._ _ ^.~...' ~ )._._.{.(.!._ ..~.~.(.~.{.{.).~.~.~ ~ ' _ _ !.~.}.|.{.{._. .H _ ' ~ G G ^.{.}.{.{.",
"{.(. .' ~.^.!. .~ ' ^.~...~.(. .&  .!. . .~  .(.{.{.(.~.....~.}.)...~.(.(.~.!. .' ' ' _ !.(.}.}.{.{._.^._ H ~.).!. . .(.}.|.|.{.",
")._. .H _ ' _ ~ H ~.{._..... .' G ' }.~._ ~ !.~.{.(.~...!.(.).{._.!...(.(.^.!. ._ ~._._.~.(.).{._.(...' ~ ' ~.|.|.{...(.).{.}.{.",
"_.!._ Z  .)._ ' _ ~.).{.(..._ G ~ ).|.}.~. .(.!.~._.!. .!._.{._.!.' ' (.{.~...' !.}.|.{.!..._.(.!. .' ' .._.{.|.|.}._... .!._._.",
"!.' H _.{._.(.(...Z ..~.!. ._ ~ (._. X}.).(...!.(._.(... .~.~.!._ ~ !.)._.!...!.(.{.{.{.~.' !... .~ _  .(.{.}.}.}.{.{.~._ _ ' !.",
" .L ^.{.}.}.)._.!.Z L ~.^.!. .' (.{. X{.{.(.(.!.~.^.~.!.'  . ._ Z =  .(.(... .!._.{.).{.(...' _ ~ G _ (.{.{.}.{.{.)._.~.' L ..' ",
"_ !.).}.}.).).~. .H !.).}._.(...~._.{.).(.(.~.!.!..... ._ ~ ' ' G = !.).(.!. .!.(._._._.~...~ ~ H H !.~.{.}.{.{.).(.~..._ ..!.(.",
"' (.{.}.)._.^. .~ ..{.{.).(.~.^...~.).^...^.!. . .!...' H ' {.~.~ H ~.}.).~. . ...~.~.~...' _ ~ ..^.!.).{.{.).(.(.^..._  .).{.{.",
" .^.!.(.).^. .~ _ ^._.).(.(.^.^...~.~. .~  . .' !.!. . . ._._.^.^.~ !.(.~...' ~  ...^.~.!. ...(.(.{.).).~.~.~.~.^. .' !._.{.).).",
" .G  .~.~. .~ ~ !.(._.(.~.!.!.!.!... .H B ~  . ... .' !._.)._.).~.H ' !._ _  .....!.!.^.!.~.~.(.{.).{.!. .'  . . ._ !.(.).{.{.(.",
"~ = ' !. .~ G _ !.(.(.^.!. ...!. ... ._ = _ (.).).....^._.{.).(. .= ~ _.!.!.~.~.(.(.~.~.~.(.(.^.!.(.)..._ ~.' _ ~ ~ (.{.{._.(.!.",
"H Z !._.^._  .!. .!.!.!. . . . . .!...!._  .(.{.}._...'  .!.!...H Z !.}.|.{.).).).~.(.{.^.^...~ ' (.~...~.(.~.^.....!.!.^.~.!. .",
"Z ' (.}.|.{.~.'  .!. . .' ~ ~  .^.!.^.!.!.^._.).)._.^._ _ _ _ _ Z ..).|.}.{.{.{.{.~._.).~. .~ G  .}.(.!.}.|.(.~...' ' ~ ~ ' ' ~ ",
"G !.{.}.}.{._.^...~. ...~ G H !.(.~.^.^.(.{.{.(.(.(.~.' _ (.).|._ (.|.}.{.).~...).~.!.(.~. ._ ' (.|.{.|.|.{.(. .~ ..L ' !.G = G ",
"!.{.).).).(.^.!. .!.~.~.!. .^.!.).(._._.^.(._._.(.(.!.' _ (.}.}.(.~.).{.).(.~.B ~...' ..' ' ' ..(.|.|.{.)._...B ^.(.~.(...B G  .",
"}.).!.' ~.^.' _ _ !.).).(.~.~.).}.}.{.). ...~.~.~.^.!.'  .).}.|.).~ [ '  .....M .._ ' ~.^.' ^._.(.{.}.!.....G ..(.).(.~. .~ !.{.",
"|._.' ' .. ._ H ~ ~.).(.~.(.{.{.{.{.{.(...L ' ..!.!. ._  .{.|.}.A 2 &.:.e e 1 k _  ._.).).(.).).!.!.(...H H ..!.~.~.!. .~ ~.{. X",
"{.). ...~.).!._ ~.(.).(.~.(.{.).)._._.^. .G '  .'  .' ' (.{.{.D 0.C.V.V.e :.i 4 L ).}.{.}.}.).~.' ....~ Z ~ !...~.!.' H ..{.|.|.",
"(...' !.).}.{.(.).).).~.!.!._.~.!.(.~..._ L !.(.(. .L ^.{.|.).2.V.C.V.C.; %.s e.c ~.}._.(.~.!. . .!.(...H L !... .~ L ~ ~.{.}.{.",
"' _ !.).}.}.).).).~.~.!... .......!.!. ._  .~ B B G ` ..~.~.(.1.V.C.V.:.2 d =.j.1. .~. .F.H ~ H  .~.(.!.' G ' .... ._ ' ~.).{.~.",
"Z  .(.{.}.).(.}.)...~ ^.^.' ' ~ _ ..(..._ v ;.3.4.%.; + & L ~.I 0.V.8.r ;.d %.;.q.V.a q.<.A G _ ..~.(.(. .....~.(.(.~. . .(.!.' ",
"G ~.{.{._.(.)._.^._ ' ~.).!. . .~ ..!. .i.V.V.V.V.V.V.V.>.> 1 V z d.$.w.%.;.V.V.V.V.$.V.9.d J (.(.{.).).!.~.~.~.~.(.~...^...' G ",
"~.(.)._.~.~.~.!._ ~ _.{._...' (.~.~...U V.V.V.V.V.V.V.V.V.V.j.8.%.v 4.e.V.V.V.V.V.;.9.V.g .X( ~.).|.{.(.~.~.!.!.).(.~.(...'  ._ ",
"}.{.(.~... .' _ G ..(.{.^._ ^.{.).).!.b V.V.0.3.;.:.6.j.j.C.C.C.C.C.V.V.V.V.C.V.V.6.q.C.<.8X7X_ (.{.{.^...!...!.~._.(.(. .' ).}.",
"|.~.(.~.!... .L ~ (._.~. .' ).{.).{.(.2.V.d T Q.XXQ.b.9 %.j.C.C.V.C.V.V.V.V.V.V.V.V.0.C.6.3X6X4X' _._.~. . . .!.(.(.(.!. .(.}. X",
"_.!. ._.}.).!.' ~.)...' .._.).{._._.^.2.u.@X=X=X=X=X-X=XQ.M 6.C.C.V.V.V.V.V.V.V.V.V.V.V.V.Z.6X6X~ ..^. .B H _ !.~.(.~.!...~.(.).",
"..' ..).|.{.~.^.~.(.!.~ !.).{.).(.~. .i oX=X=X=X=X=X=X=X=X&XT 3.V.V.V.C.C.V.V.C.V.V.V.V.V.7.8X3X& ' ' H @ & (.).{.(.(.~.~.).(...",
"(.^.).{.{.(.!. .~.{.^. .' !.(.~... .' l -X-X=X=X=X=X=X=X=X=X-Xk.V.V.V.V.V.V.V.0.7.0.V.V.V.V.H.|.  .._.~.H = {.}.|.{.(.~.~.).{.(.",
"..!.).{.(... ...(.}._.' H H '  .' ~ H B %X-X=X=X=X=X=X=X=X=X=X#X:.C.V.V.V.V.C.C.V.4.;.4.V.V.N.,X  ~ ..[   ..(.).|.{.)...' ..~.~.",
"~ ~.(.~...' ' ~.{.}.{.~.~ L H ~ G = ~ ' b.=X=X=X=X=X=X=XQ.&X=X=Xa.C.C.V.w.e.0.V.V.V.V.7.s e q ( * { 5X2X>X . .!.{.{.~.' L ' ..' ",
"~ ....' _ H  ._.}.}.{.(..._ ..(.' !.~.).K XX=X=X=X=X=X=XS T Q.M.q.V.V.V.V.V.e.:.=.:.>.8.e.V.V.3./ >X2X5X5XF.L _ !...~ Z ~ ~...Z ",
"!.|. .~.~. .^...(._.~... .' ~.).}.}.}.).L V $X=X=X=X=X=X#Xk.-.8.C.V.V.V.V.V.V.V.V.C.e.:.y t &.&.z [.<X5X2X/ B ~ ~.L ~ _ ' ^.~.~ ",
"~.(.~.{.{.).^.~.~ ~ ' ~ ~ !.~.}.|.{.{.(. .H P @X=X=X=X=X=X=XoXr.V.V.V.V.C.V.V.C.V.w.C.C.C.C.V.;.[.5X5X5XF.H ~ )._._.}.~.!._ !.~.",
")...~.(._.~.^. .' ' _ ' !.(.}.{.{.{.~.!.' H ^.[ Q.&X-X=X=X=X$X-.V.V.V.C.V.V.q.N.L.U.A.a.;.$.; X `.OX[.{ ~ ~ ' (.{.{.} ......~.{.",
"_.!..._._.~.!. .~ ~.).).~.(.).{.).~.Q.' L ' ~.}.{.| Q.#X=X=X%XM C.V.V.V.0.f.>X5X5X5X2X<X.       ( C _.(._ ~ !.(.{.F 6.D !.~ ).{.",
"!.' ' (.{.~...' !.}.}.{....._.(.!. .' ' .._.{.|.}.}.(.W _ n.Q.L >.V.V.V.f.1X5X5X5X5X5X>X    . # ( n k 1 j l  .!...1.>.D k :.' ).",
"~ L ..).).^. ...(.}.{.{.(.' ..!. .~ _  .(.{.}.}.}.{.{.~.' _ ' !.7 V.V.C.].5X5X5X5X5X5Xm.- . X F.:.V.V.V.V.8.&.0 b V.9.7.5.6._ !.",
"Z B  ._.~... .~._.{.{.{._...' _ L H _ (.{.{.{.{.{.{._.^.' H  . ._ q V.V.K.5X5X5X5X5X1XO.+.5 ( b V.V.V.V.V.V.V.V.C.C.V.C.0.0  ._ ",
"Z & !.{.(.!. ...(.(._._.~..._ ~ H H !.~.}.}.{.{._._.^...' ..!.~._ ' <.C.d.1X5X5X5X5XOXo.#.O.x.V.V.V.V.V.V.V.V.V.V.V.V.V.f J _ ' ",
"~ H ~.{.).~.'  .!.~.~.~...' ~ ~ ..~.!.{.).{.{.(.(.^..._  ._.{.{.' ^.U q y Z.5X5X5X5XK.+.#.! f.s.b b g d d %.i.i.t.C.e.v L ' {.~.",
"~._ !._.~...' ~ ' ..F.(.~. ...~.~.{.).).~.~.~.~.!. .' !._.}.)._.' j 6.9.r ; m.<X<X5X+X@.l._ ^.!.!.^.!.~ H _  .' ^ 0.V.e ' (.(.!.",
"~.L ~ ~ = @ @ & l ~  .!...~.~.(.{.).{.!. .'  . . ._ !._.).).{.(.$ 9.V.V.V.j.u , 0 `.1XOX`...!.!.!... .L B Z .. .F.H j K (.{._.).",
" .B H (.!.!.~...] x $ z  ._.(.^.!.(._..._ ~.' _ ~ ~ (.).{._.(.Z :.V.V.V.V.V.V.>.< L /.`.'  ...F. . . .J 0 t U ).{.....^._.{.)._.",
"G Z !.}.|.{.{.).).~.!.U q z  ._ ' (.(...~.(.~.!.....!.!.~.~.K t V.V.V.V.V.V.V.C.V.;.6 J _  . .....!./ <.V.:.J ).}._... ...!.!...",
"Z ..).|.{.{.).{.{.~._.).~ a j B  .}.(.!.}.}.).~... .' ~ ~ L i V.V.V.V.V.V.V.V.V.V.V.0.$.2 % = ~ ^.!.h V.7.&.d D _.(.!.~ _ _ _ ~ ",
"_ (.}.}.{.).{.).).^.!.~.!.' p q  .}.{.}.}.}.(. .~  .L  ._ w V.V.V.V.0.5.V.C.C.V.V.V.V.V.V.V.9.$.v m V.V.V.V.>.q  .(.^.' ~ (.).|.",
"(.(.{.{.).)._._.(...' .. .' _ n p !.|.{.).)...B F.!.' ] d V.V.V.V.V.C.0.i.;.V.V.V.V.V.V.V.V.V.V.V.0.V.V.V.V.8.7.$ ~.!. .~ (.}.|.",
"_.' !.(.(.~.~.^...' _ ~.!.' ..^.m %...!...' & O : r >.5.V.V.V.V.V.V.V.N.:XU.$ d 3.9.V.V.V.V.V.V.V.V.V.V.8.h s.m ' ^.!.'  .).|.}.",
"). .' ....' ' ' _ ' ).).~.U g <.x m 2.^ & o w 6.V.V.V.C.V.V.V.V.V.V.N.E.:XR ~ Z = j 2 w y *.*.d s.<.;.t x H ' ..!.!. ._  .{.|.}.",
"(.' L  .' ~ ~ ~  .).}.!.h V.V.V.7.C ^ 3 u 0.V.C.V.C.C.C.V.V.V.V.t.A.;X;XZ. . .H F.(.).!.[  .~._._.).F.!. .G '  .'  ._ ' (.}.}.{.",
"!._ ' ~.{.~.!.^...~./.1.V.V.V.V.V.j z $.V.V.V.V.V.V.V.V.V.V.9.g.P.;X;XU.A Y q w $ ^.).~.!.^._.(.^.~.^..._ L ^.(.(.' _ ^.{.|.{._.",
"' H ~.{.}.{.).~.A I p.V.V.V.V.V.V.O :.V.V.V.V.V.V.V.V.V.5.i.S.;X;X;XY.q q.V.V.V.6.l ~.!. . . ... .^.!. ._  .(.{.).(...!.~.(._.~.",
"L G (.}.|.}.{./ 6.7.V.V.V.V.V.V.;.t V.V.V.V.V.V.V.C.7.p.S.E.;X;X;X;Xz.0.V.V.V.V.9.* = ~ ~. .' _ _ !.(...' (.).}.{.).~.' _  .~...",
"B ~.).|.|.{.{.F 6.9.V.V.V.y V.7.w V.V.V.V.V.C.V.q.<.J.:X;X;X;X;X;XJ.;.V.V.V.V.V.>.* R.^ _.F.'  .~ ..!. . .(.{.}.{.).(.!._ ~ ' _ ",
"_ !.|.|.}.{.).~.~ c >.V.;.>.V.2.V.V.V.V.V.V.C.:.A.E.:X;X;X;X;X;XP.f V.V.V.V.V.V.a I ;XS./ _ ' (.~.~..._ ' ).}._.(.~....._ Z G Z ",
"_.).}.|.}.}._.!.' A m ^ % V.V.V.V.V.V.V.V.V.i.I.;X;X;X;X;X;XW.J.s V.V.V.V.V.V.=.q S.;XT.Y.* ~.{.).).!. .' ~.).(.^. ._ L Z Z  . .",
"(.' _.}.{.).~.../ ~ ~.{.O V.V.V.V.C.C.V.V.2.Y.;X;X;X;X;X;X:Xs.$.V.V.5.V.V.V.V.V.1.E.;X;XJ.= ).{.).{.).^.' ~.(.^.' H G _ ~  .~.{.",
"~.~ ~.).).(.!.[ ~ ' (.|.: V.V.V.V.V.V.V.V.i.E.;X;X;X;XE.Z.x p v v k 1 0.V.V.V.V.D.;X;XW.x ~.).{._._._.^._ .... .H B ~ (.~.)._.).",
"..Z  .^.!. .' _ H  ._.|.O V.V.V.V.V.V.V.V.9.a.A.S.H.G.( / ..^.....' * 9.V.V.V.d.W.;X;XZ.~ ).{.).(.^... .~ H _ ' ~ = .._.(.).)._.",
"_ B (.{.(.~.~.~.~ ..{.|.' i 6.9.V.8.6.3.&.g ^ ( F.~.(.~.^._.{._.(.!.8 9.V.q.D.E.;X:XZ.B ' !.(.(.!. .' ~ H  .{.~._ H ..~.~.(.(.^.",
"~ ~ (.|.|.}.{.{.!.~  .(.). .l j j x F _  .~.(.).}.}._...' ..^.~...^.% w.g.P.;X;X:X^ _  .H G '  .' H H H ' ..(.!.~.~... . .~... .",
"H  .).|.}.}.}.).!.= ..!. . .~ ~ /.{.|.|.{.(. .!.}.{.~._ L ' ..' ~ ~.Z p.E.;XE.H./ ^.}.~.~ L H ~ Z = ~ ' ..'  .(.{._.^._ H _ _ _ ",
"H ~.).|.}.}.{.)...B ..).~._ H _ (.{.|.}.)...L _ ~.(. .H ~ ~...Z ~ .. ./ H.x.E ..}.}.{.(. .' ..(.' !.(.).!.!.~.{.(.^. .H ' ~.' L "
};
