/* XPM */
static char *_01aaefe764c4fafa1912b93386f1c18eWvOCiJDEGbCZ4nq[] = {
/* columns rows colors chars-per-pixel */
"64 64 139 2 ",
"   c #2E271E",
".  c #352D23",
"X  c #373026",
"o  c #393126",
"O  c #3D3529",
"+  c #3F382C",
"@  c #40372B",
"#  c #42392D",
"$  c #463E30",
"%  c #483F31",
"&  c #464032",
"*  c #4D4334",
"=  c #514636",
"-  c #534738",
";  c #564A3A",
":  c #5A4E3C",
">  c #5D513F",
",  c #584F40",
"<  c #5E5341",
"1  c #625542",
"2  c #665945",
"3  c #6B5C47",
"4  c #695C47",
"5  c #695B46",
"6  c #675D48",
"7  c #665C48",
"8  c #685C48",
"9  c #695C48",
"0  c #685D48",
"q  c #695D48",
"w  c #685D49",
"e  c #6B5D48",
"r  c #6B5D49",
"t  c #695C4A",
"y  c #6A5D4B",
"u  c #6C5E49",
"i  c #6D5E49",
"p  c #6C5F4A",
"a  c #6D5F4A",
"s  c #6E5F4A",
"d  c #6B5E49",
"f  c #6C604B",
"g  c #6E604B",
"h  c #6F604B",
"j  c #6F614B",
"k  c #6D604C",
"l  c #6F634F",
"z  c #6E614B",
"x  c #70604B",
"c  c #70614C",
"v  c #70624C",
"b  c #70634D",
"n  c #70634E",
"m  c #74634E",
"M  c #72654E",
"N  c #72664F",
"B  c #76654E",
"V  c #77664F",
"C  c #72634D",
"Z  c #6F6550",
"A  c #736751",
"S  c #726652",
"D  c #766650",
"F  c #766750",
"G  c #746650",
"H  c #786650",
"J  c #786750",
"K  c #796750",
"L  c #786750",
"P  c #756952",
"I  c #7B6952",
"U  c #7A6A52",
"Y  c #7B6A52",
"T  c #7C6B53",
"R  c #7D6B53",
"E  c #7E6B53",
"W  c #7E6C54",
"Q  c #7E6D54",
"!  c #7E6D55",
"~  c #7E6E55",
"^  c #7F6E56",
"/  c #7E6F56",
"(  c #7F6F56",
")  c #7C6B53",
"_  c #7E6F58",
"`  c #7F7057",
"'  c #7E7058",
"]  c #806E56",
"[  c #806F56",
"{  c #816F56",
"}  c #826F56",
"|  c #816E56",
" . c #807057",
".. c #827057",
"X. c #807158",
"o. c #827058",
"O. c #827158",
"+. c #83735A",
"@. c #847158",
"#. c #857259",
"$. c #85735A",
"%. c #83745A",
"&. c #87745A",
"*. c #86745B",
"=. c #87755B",
"-. c #86765B",
";. c #87775D",
":. c #85755E",
">. c #84735A",
",. c #88755B",
"<. c #89755B",
"1. c #88765C",
"2. c #88775C",
"3. c #89775D",
"4. c #89765C",
"5. c #87785E",
"6. c #89785D",
"7. c #89795E",
"8. c #8B795E",
"9. c #897B5F",
"0. c #8C795F",
"q. c #8C7A5F",
"w. c #8B795E",
"e. c #877A60",
"r. c #897A62",
"t. c #8A7A62",
"y. c #8C7B60",
"u. c #8C7C61",
"i. c #8E7C61",
"p. c #8E7E62",
"a. c #8E7F63",
"s. c #8D7D61",
"d. c #917E62",
"f. c #8E8165",
"g. c #908165",
"h. c #918265",
"j. c #938265",
"k. c #928269",
"l. c #938368",
/* pixels */
". o O O o O O O o . o O # # # + + O o O # o O + & # # O o . .   . O # # O O o O O + # # O o o . o . o o O O O # o o O # O O + # ",
"o ; : : : : > : : ; : : : : ; O O ; ; < 1 > < < 2 < ; - ; - * o O ; > < : ; - ; ; : > > : ; * o o - : < < : ; : : : > > > ; - O ",
"# 1 1 2 2 2 2 2 3 C e 2 1 1 < # O : 1 l S t 2 3 h 2 > : : : > @ # : 2 3 3 1 : < 1 t 3 3 2 1 : # o > 6 S S 3 t 1 t 3 n h e : ; o ",
"o ; 1 W X.3.X.W } &.<.H I 2 1 # O : t r.k.;.&.&.p. .I F F > : @ # : t I <.} H m V #.0.0.W 3 ; O O 1 C g.p.&.W } &.3.y.&.3.1 : o ",
". - > H R #.} I R &.8.W R 2 1 # # > t ;.r.W X.%.8.} R I F 1 : O # > C } #.#.R V V &.8.8.W t : # # 1 3 3.&.#.W 8.g.p.p.X.W 1 : @ ",
". * : 2 1 2 1 1 3 h C 2 3 < > O # : < e h 2 2 2 t 2 2 l e e 1 # # 1 x x e C 2 1 : 2 1 t 3 2 > # O ; > 2 2 1 > 2 n h t 1 2 : : @ ",
". * : : : : > > < < 1 > 1 : - O # : ; : ; ; : > > > > < 1 2 < # # : > ; - : ; > ; > ; > > 1 : o o * : < 1 ; ; ; < : : : ; ; - @ ",
". o # # # O O O + O O O # # # O O # # # + O o o o # # % % % # O O O O o o O O # O @ O @ # # O . . o # # # O O O @ O @ O O O O . ",
"o O @ # @ # O . . o @ @ # O # # & & % + o o o X o # # O # # # @ # O o . . o O O O @ # # # @ o . o # & % # # # o o # # O O o O O ",
": > < 1 : < ; O o - : ; < : < < 2 7 2 1 < ; - o # : > ; : < < : > : : ; > : - X o - > > 1 > ; - ; > > > > 1 : @ @ : : ; ; ; : : ",
"> 1 3 e 1 1 > # O ; 1 2 e 3 2 6 t t l t 3 : ; O % 2 t 1 3 e h t h e h t x 1 ; o o : 1 2 e t 1 1 1 1 3 2 t 1 > O # : 1 1 3 2 e V ",
"#.<.&.<.} 2 > # O * : I g.p.;.} V I } #.X.1 ; O % 1 t I 3.0.y.g.p.8.<.<.8.2 ; o o : 1 W 3.8.&.} } R ` ) W 1 > O O ; 1 R 3.<.0.d.",
"} #.E #.W 1 ; o O * ; I d.j.d.<.H V E  .W 1 ; O # 2 l W <.3.p.g.e.&.&.0.3.3 : # # 1 1 F W 3.8.<.#.} ;.;.X.3 < O O ; 1 R } <.<.8.",
"C h 1 2 e 2 > o O * : 2 C C e x 3 2 1 2 3 > ; O # > < 1 2 e n P t : : 1 3 2 1 % # 1 2 2 2 e C C e 2 3 2 h 3 < O o ; > 3 2 3 3 e ",
"1 > ; : > > - . o * ; : : ; : > > > > : < : - O O : ; : > 1 < < - * * : > 1 : # @ ; : ; ; : 1 1 < > < 1 1 1 : O O ; : : ; : : : ",
"# # O # # # + . o o O # O o . O O O # # # # O . o O O + # # # # o . o O # $ # O o O # # # # # # # % % # # # @ . o O # O O o O # ",
". O # # # # O O O # O # O o o . . O @ @ @ # O O o % # # O # # o . o O # # # O O o O O O @ O O o o % # # # # O o o + # # + O # O ",
"o : 1 < < 2 1 1 1 1 : : : : - o o - : : < 1 < : : < < : ; < > # o * ; < > , ; ; ; : > : ; ; - O + < < < > : ; * - : 1 < : ; : # ",
"o : 1 2 2 h 3 e e m h l Z t < O # > 2 3 3 h e e e f 6 2 1 1 < % # : : 2 8 2 7 1 2 < 2 1 1 : - O @ > 1 1 1 2 2 1 2 l n S e 3 1 % ",
"O < 1 I W p.8.p.8.0.&.r.e.l 1 @ # 1 C 8.g.p.0.&.3.W X.} X.t < # @ > 2 R  .I ` ) _ I #.X.I : * O # 1 3 W #. .&.X.&.&.3.0.} e > # ",
"O : > x V W ) W #.<.0.g.a.f < O # 1 V g.p.p.<.3.<.#.#.#. .3 1 # # 1 3 V R I r.;.X.I X.p.&.1 - o O ; 2 ) 8.} &.X.0.<.8.3.#.n 2 # ",
"O : 1 1 t t t 2 t 2 2 3 e 2 : O @ < h P P l 7 2 t 3 1 : 1 t 1 + O : 2 1 > 1 2 3 1 2 h F n > - o O ; 1 n S 2 1 > 2 2 3 2 3 t < # ",
"O ; > : 1 > : - ; - : : > : * . o - > < < < : > < 1 : - ; : : # O ; : ; - : : > > : 1 2 1 : - O o & - : < ; ; * : ; : : < 1 : O ",
"o O o O # # O o o o o # # # O o . O o O + # # # # # O o o + # o o O # # O O O O O o O O O o o o . o . o o O o o o O O # # # O o ",
"# O o o O # O . . O # % # # O # o O o o o # # + O # O # O O # @ # # # # # O # o O O # O O O O # O o . o O O O . X O # # # O # # ",
"; : ; - ; : ; O o : > 1 < 2 2 2 > > ; : : < > # O ; : > : > : ; : > < : ; ; : O O - : > : : : : ; ; ; : 1 1 : O o - : ; : : 1 1 ",
"2 3 2 1 1 2 > # O < t P l S h e 2 2 2 1 > : : O O : < 3 e e 3 2 2 3 h t 2 < < # @ : t I F h 3 3 1 1 2 C S t 1 @ O - < 6 l e C m ",
"%. .I I e 1 ; O o ; 3 8.8.p.8.8.X.8.&.&.I 1 : O O ; 1 #.d.0.#. .R E  .W W 1 1 # O ; 1 u.p.d.} R V I X.p.;.t < # O - 1 %.p.y.0.j.",
"g.X.C V e 1 ; O o ; t 8.y.p.#.;.X.;.X.W C < > O O ; 2 } <.3.<.y. . .W 8.;.t 1 # O : 1 u.p.p.#. .R I V } R 1 ; O O - 1 ` ;.X. .3.",
"l 1 : > 1 2 < # O : 2 e 3 2 1 2 2 h t t 3 2 1 O o ; 1 3 3 2 3 e 1 < : t h n 3 % O ; ; 2 3 C x h 3 2 1 1 1 1 ; O O - : > 1 1 3 C ",
"> : : ; < 1 < # # : > > : : ; > : > > > > : - . o - : : - - ; > ; ; - > : 1 > # o * ; < 1 1 1 1 < > ; ; : > : O o * ; ; ; ; ; : ",
"O O O o # # % O o O o o O O o o o O # # # + o . . o # O o . . . o o o O o + + o . . O O # # # O O # # # # # # o . o O # o o o O ",
". o O o O O # # % + o o O O O X o O O # + O o . o o O o o . X . o O # # o O O + O # # O + # # . o O # # # # # O O O # # O o . . ",
"o - ; * : : 1 < 1 < : * - - - o O : ; < : > : - ; - : - - * * o O : 2 2 < : ; : : > : ; : ; ; X O - 1 < < > 1 : : ; > 1 > ; * o ",
"# : > > t C P h C h t 1 2 1 : O o ; ; 2 2 3 3 2 3 > 1 : : - - O # < S P P h 2 2 t l h e e 1 : O # : 1 1 e x V e h 2 e 2 x 2 : O ",
"% > 2 x X.&.p.8.3.X.W P I 2 > O O : 1 W #.&.<.<.#.I V V 3 : ; # # 1 S ;.;.W V V I &.0.0.#.1 : O # > t W 0.d.l.0.<.W 3.<.3.C 1 # ",
"% : 2 e ) ` ;.3.W I x V I e : O o - < V } } <.3.8.I P V n > ; O # < t  .#.} C x x X.3.0.#.3 : # # 1 e #.j.l.l.&.} H W } W e > O ",
"O ; 1 1 1 1 3 h 2 1 : 1 2 1 : O O ; 1 3 3 3 e 3 e 2 2 6 t t > # O : 1 1 2 2 : : ; 1 2 t 3 : ; # # 1 2 C C l 2 1 1 1 1 3 2 t : O ",
". % - : > > > : ; ; ; : ; : ; O O - : : : ; : > 1 > 1 < < > - o o - : : 1 > : - % & - > < : ; O # : : > 1 < ; : ; - * - ; < ; o ",
"    . O @ # # # O + O O o o O o O + # # # @ O # # # % % % # O o X O # O @ O @ o . . O # # # # o o O @ O O O o + O O O O O # O o ",
". . . o O # # O o # # O o O # # O # # # O O o o o # # # # # O # O + O O O # # o X X + O # # # O @ @ # # @ # % # O O @ O O O O o ",
"; - % & - ; : # # < < < > : > > > 1 < < : : - O O > < < < 1 > < > > : ; > < < O # ; < ; > < < : : < 1 > : > : O o ; > > : : : ; ",
"1 1 > 1 2 1 > # # 1 3 x C C 3 t t l 3 2 > > : # # < 1 2 1 2 1 2 1 3 2 2 t l 6 # # 1 2 1 2 t t 2 2 3 2 1 1 2 1 O o - : 1 1 2 2 1 ",
"8. .P } I 1 ; @ # < e <.j.d.0.r.8.p.3.#.V > : @ # 1 2 I I W R V  .3.d.p.8.n 1 # # 1 t W } W W  .E } } I C > ; o o - : x R } #. .",
"p.&.;.8.3.3 : O # 1 3 X.p.g.r.8.3.p.3.#.V 1 : # # > 2 H R H R I } 3.d.g.;.h > O # 1 C X.#.W W } #.3.8.} H 1 : # O ; : x W &.8.&.",
"V e t 3 C e > O o : 1 2 e n l 2 1 3 3 2 1 < : # O ; 1 2 2 1 e t 3 2 l A P 2 : O # > 2 1 1 1 2 e e l t 1 1 : : O O : > 2 3 e n V ",
": : > ; < > ; . o - ; ; ; > > - ; : ; ; - : ; O O - < : ; ; : > : ; < < 1 : - . O ; : : : 1 : : : < > : : < > # O - : > > > 1 2 ",
"O O O o o O O . . o O O O O O o o O O O O # O o o O # O O O # # # O + # # # # o O # # # # # # O o O o o o O # o o o @ @ o o O # ",
"o O O o . . o . O O # # O O o . o O % # # # # O O # % # O o o . . o # # O o O O O O # # # % O . . O # O o o O O o o O o o . o . ",
"O ; : ; - - ; ; ; ; > 1 : : * o O ; 2 < 1 : : ; : > 2 1 1 ; ; O O * ; : : : : < > < ; : : < - o O ; < ; ; * : > : - - ; ; ; * o ",
"O > 1 2 1 1 2 1 2 1 3 3 1 : - O # < l e S t t 1 3 e C x e 2 > O o - < 3 8 2 2 1 1 2 1 1 1 < - o # < h 2 2 > 2 e 2 1 > 2 t 2 : o ",
"# < 2 R W 0.3. .I R  .#.F : * o O : e } p.r.;.X.#.#.} #.3.C 1 # + : 1 } 8.p.&.&.X.0.#.} V : - . O ; 3 R #.#.#.#.E }  .8.<.C 1 # ",
"# 1 3 I W 0.d.<.R W &.<.W : * . o : e W 8.8.r.&.#.&.} &.X.t > O O ; 2 I ;.X.W W W 0.d.p.X.> ; o O ; 1 X.8.&.I I R #.#.<.W e < # ",
"# 1 2 1 1 2 3 1 1 2 e e 2 : -   . * 1 1 2 2 1 1 1 2 1 1 2 > > O # ; 1 1 3 1 1 1 2 C C C t 1 ; O o ; < t l h 1 : : 1 2 3 3 1 > # ",
"O ; ; ; ; : > > > < : : : : - . . * : ; - ; - ; ; > > ; ; - : O # - < ; ; - - - ; : < 1 < > - o o ; < 1 2 < : ; ; - ; : : ; - o ",
". o O O O O O O @ # O O o O O . . o o O o # O @ O @ @ O O O # o + # $ O O o o o O # # # O # O o o @ # # # # # O o o O # O o o . ",
"O O O # O @ O o o O O O O @ O o o O O O o O O o o @ # # # O O # & & # O O O O X o # # # # # # @ # # # # # # # o . o # @ O . o o ",
"- : 1 1 > ; * o O - : ; ; ; ; ; ; : < < : : ; O @ ; 1 1 < : ; > < < : : < > ; O # 1 1 7 < 1 > 1 > : ; ; ; : : + O - 1 : : - - - ",
"1 3 e x 2 : - O @ ; < 1 3 2 3 2 3 t e e 2 > * o O : 1 t t f t C t 2 2 e h 2 : O # 1 f S l C e x x e 1 1 > 2 < # # ; 1 1 3 1 2 1 ",
"h I &.W V : ; O O : 1 H #.#.#.} 3.3.y.8.} 1 ; O O ; 1 W ;.u.f.f.&.;.3.d.&.3 : O o : h a.k.a.p.0.d.&.) V C 2 < % # : 1 F R } I I ",
"I I #.V V 1 : # # < 2 R } W } W <.#.&.#.} 3 ; O o : 2 ` ;.u.u.g.&.p.0.g.X.> - . o ; t X.p.p.d.<.;.%.` I F t 1 % # 1 2 } W X.V V ",
"2 1 3 > t 2 1 # # 1 2 2 2 3 3 1 t 3 h 3 3 1 : @ @ 2 h h 2 t t l 3 n C C t > - . . * 1 3 t t 3 3 2 2 t 2 2 1 2 % % 1 1 2 1 t 1 > ",
": ; : : 1 2 > @ O : > ; - ; ; ; > < 1 < > > ; O @ < 2 > : : > 1 < < > 1 < ; * . . * : > : ; ; : ; : > : ; > 1 # # ; > > < 1 < : ",
"o o # # % # # o X O O O o @ O @ # # # # # # O O O # # O O O # % # # @ # # # O o . o O # + O o @ # # # o O # % O o o O O # # & # "
};
